<svg xmlns="http://www.w3.org/2000/svg" viewBox="0 0 366 357.92"><defs><style>.cls-1{fill:#434343;}</style></defs><title>Fichier 2</title><g id="Calque_2" data-name="Calque 2"><g id="Calque_1-2" data-name="Calque 1"><path class="cls-1" d="M0,225.39v-44a26.39,26.39,0,0,0,1.79-3.86c2.1-7.33,6.6-12.89,12.36-17.71a9.57,9.57,0,0,0,3.21-5.46c2.11-15.1,2.66-30.53,6.06-45.31,13.92-60.4,56.9-93.86,111.9-104.87,19.92-4,40.14-4.72,60.49-3.86,24.59,1,48.41,5.11,71,15.23,31.6,14.15,54.36,37,68.1,68.82,9.58,22.19,12.88,45.59,13.8,69.48.06,1.58.2,4,1.17,4.56,8.77,5.35,13,13.73,16.11,23v45a9.15,9.15,0,0,0-1.09,2.07c-3.27,13.9-12.88,23.41-26.86,25.24-7.38,1-15,.72-22.45.46-4.34-.15-6.36,1.25-8,5.33-15.24,37.41-40.37,66.12-76.08,85.29-15.46,8.3-31.94,13.57-49.58,13.11-27.38-.71-50.72-12.43-71.71-29a163.94,163.94,0,0,1-52.15-70.65c-1.1-2.86-2.61-4.12-5.85-4-7,.22-14,.22-21-.1-12.14-.57-21.09-6.55-26.78-17.17C2.51,233.32,1.46,229.24,0,225.39ZM132.31,104a21.57,21.57,0,0,0-1,2.57,19.61,19.61,0,0,0-.36,3c-.52,15.2-5.41,29-13.79,41.52-10.86,16.23-25.36,27.5-44.92,31.35-3.16.62-3.2,2.79-3.3,5.2a179,179,0,0,0,4.28,45.45c1.71,7.88,4.67,15,11.7,19.48s14.06,8.89,21.58,12.25c13.12,5.87,27.4,7.2,41.53,8.72a5.72,5.72,0,0,0,4.28-1.62c11.51-13.28,32.37-14.09,46.44-6.87s16.33,22.31,4.64,32.14A35.77,35.77,0,0,1,193,302.83c-13.84,5.17-33.2,1.51-41.3-10.19a6.71,6.71,0,0,0-4.63-2.2,157.48,157.48,0,0,1-40.95-7.4c-3.79-1.24-7.49-2.78-12.21-4.55,1,1.56,1.29,2.12,1.67,2.64,16.63,22.6,37.47,39.86,64,49.63,10,3.69,20.35,6.07,31.28,4.08,26-4.74,47.28-18.17,65.41-36.72,33.45-34.22,44.82-75.89,40-122.69a7.25,7.25,0,0,0-2.73-4.33c-20.5-16-44.79-21.14-69.82-24.63l9.11,17.66c-4-1-6.82-2.87-9.9-4-11.08-4-22.28-7.62-33.4-11.48-17.74-6.16-33.55-15.35-45.72-30C140,114.12,136.44,109.33,132.31,104Zm-82.8,49.41c3.33-19.83,8.57-38.64,18.15-56C78.43,77.91,93.13,62.28,113,51.72a131.77,131.77,0,0,1,48.25-14.46c23.4-2.56,46.58-1.85,69.12,4.94,41.3,12.43,66.43,41.2,79.3,81.47,3.1,9.73,5.11,19.81,7.6,29.63h11.45c0-4.35.56-8.37-.1-12.18-2.27-13.06-4-26.34-7.73-39-7.27-24.49-21.58-44.36-43-58.7-24.86-16.63-53-22.51-82.18-24.09-23.33-1.25-46.5.55-69.11,6.87C103.36,32.7,82.77,43.7,67,62.39,44.88,88.6,38,119.91,37,153.44Z"/><path class="cls-1" d="M135.39,215.3c-10.22-.14-18.9-8.92-18.56-18.79A18.7,18.7,0,0,1,136,178.43a18.44,18.44,0,0,1-.65,36.87Z"/><path class="cls-1" d="M230.73,215.26a18.15,18.15,0,0,1-18.6-18.08c-.13-10.74,7.67-18.52,18.34-18.78,11.38-.28,18.61,9.17,18.87,18.59C249.62,206.91,240.77,215.2,230.73,215.26Z"/></g></g></svg>