<svg xmlns="http://www.w3.org/2000/svg" viewBox="0 0 352.72 479.17"><defs><style>.cls-1{fill:#424242;}</style></defs><title>Fichier 1</title><g id="Calque_2" data-name="Calque 2"><g id="Calque_1-2" data-name="Calque 1"><path class="cls-1" d="M31.11,181.39c-.41-12.36-4.64-23.08-11.64-32.87-10.58-14.8-8.06-29.75-.38-44.66,2.64-5.12,7.56-7.69,12.53-10.13,22.05-10.81,34.9-29,40.57-52.32C76.63,23.17,93.54,10.24,112,12.69c5.46.72,10.74,2.78,16.15,4,16.9,3.87,32.64.85,47.54-7.85,5-2.93,10.25-5.88,15.78-7.51,15.85-4.67,35.11,3.26,43.67,17.39,2.31,3.82,4.35,7.81,6.66,11.63,8,13.21,20.09,20.85,34.57,25.21,5,1.52,10.12,2.88,15,4.72,13.36,5,19.35,15.73,21.76,29,1.54,8.45-1.24,16.53-2.66,24.72-2.09,12.09-2.63,24.21,1.55,35.92a69.09,69.09,0,0,0,7.75,14.66c4.6,6.94,8.45,14,7.69,22.63-.84,9.61-3.27,18.77-8.76,26.87-4.19,6.18-10.62,9.44-17.1,12.53a50.92,50.92,0,0,0-26.44,28.61,75.27,75.27,0,0,0-3.67,13.8c-1.78,10.16-6.79,18.19-15.29,23.9a108.66,108.66,0,0,1-13.39,7.73c-8.3,4-16.59,2.7-24.82-.7-14.2-5.88-28.36-5.05-42.2,1.14A36.53,36.53,0,0,0,165.45,308c-8.19,8-17.69,10-28.32,7a247.35,247.35,0,0,1-23.9-8c-6.24-2.49-10.54-7.41-12.83-13.81A56.78,56.78,0,0,0,78.84,265a43.65,43.65,0,0,0-21-7.78c-13.4-1.3-21.93-8.8-27.89-20.14C26.3,230.2,23,223.05,24,215c.65-5.26,2.53-10.37,3.65-15.59C28.93,193.46,30,187.41,31.11,181.39ZM54,157.65c.49,65.6,53.92,117.47,119.54,115.4,63.42-2,114.31-54.3,111.92-120.28A115.78,115.78,0,0,0,54,157.65Z"/><path class="cls-1" d="M352.72,432.91,275.56,396.5c-8.19,27.41-16.34,54.74-24.67,82.64L196.38,353.68c38.82-4.11,73.24-18.49,103.84-42.86C317.76,351.62,335.13,392,352.72,432.91Z"/><path class="cls-1" d="M52.47,316.23c30.07,24.37,64.7,36.32,102.93,40.17L101.79,479.17c-8.28-27.78-16.39-55-24.63-82.66L0,432.91C17.58,393.8,34.91,355.28,52.47,316.23Z"/><path class="cls-1" d="M270.45,157.34a100.59,100.59,0,1,1-201.17-.1c-.06-55.44,45.08-99.46,98.52-100.47C223.86,55.71,270.4,100.91,270.45,157.34Zm-28.52-33.06c-6.51-6.58-12.92-13-19.67-19.85L155.63,171.2l-26.86-26.81c-6.57,6.47-13.1,12.92-19.25,19l46.63,46.68Z"/></g></g></svg>