<svg xmlns="http://www.w3.org/2000/svg" viewBox="0 0 512 393.92"><defs><style>.cls-1{fill:#434343;}</style></defs><title>Fichier 1</title><g id="Calque_2" data-name="Calque 2"><g id="Calque_1-2" data-name="Calque 1"><path class="cls-1" d="M0,318.92v-303C4.37,3.47,13.59,0,26.15,0q152,.39,304,.15c17.13,0,24.17,7.08,24.18,24.35q0,24.26,0,48.5c0,1.91.19,3.83.31,6h6.05c20.67,0,41.33,0,62,0,6.77,0,13.23,1.39,17.86,6.34,5.63,6,11.33,12.31,15.5,19.37,12.27,20.78,23.75,42,35.64,63,8,14.16,17.19,27.77,20.33,44.16v107c-4.34,12.44-13.45,17-26.07,15.87a47.21,47.21,0,0,0-8.49,0c-3.46.33-4.67-.82-5.5-4.4-6.38-27.25-22.9-45.88-49.91-53.22-27.17-7.39-51,.05-70.31,20.83-9.53,10.27-14.82,22.71-17.23,36.49H197.41c-6.84-39.29-40-59.94-68.26-59.91-15.15,0-28.95,4-41.25,12.74-16.27,11.59-25.67,27.56-29.15,47.42-11.06,0-21.89-.46-32.68.12C13.44,335.55,4.34,331.36,0,318.92ZM374.23,216.56h105.3c-1.25-3.35-2-6.25-3.35-8.81-14.72-27.22-29.58-54.36-44.3-81.57-3-5.52-7.14-8.33-13.59-8.23-13,.21-26,0-39,.08-1.61,0-3.22.18-5.08.29ZM135.29,177.24c5.64,0,10.92,0,16.2,0,10.68,0,13,1.91,15,12.45.22,1.14.34,2.31.45,3.46.59,6.29.88,12.63,1.9,18.85.34,2.12,2.31,5.49,3.82,5.65,6.13.64,12.36.26,19.93.26-7.84-8.06-8.07-17.07-8.57-26.1-.47-8.53-1.4-17-8.49-23.05a9.81,9.81,0,0,1,.82-1.09c9-8.26,12.32-22.52,7.56-34.41-4.63-11.6-14.09-16.31-26.06-16.55-9.82-.2-19.65-.1-29.48-.13-3.42,0-6.85,0-10.35,0v101h17.28Zm140.45-60.39V217.63h60.15V200.85H293.33V175H332V157.79h-38.7V133.38h42.27V116.85ZM214.53,200.9V175h38.28v-17.3h-38.4V133.45H256V117H197.07V217.6h59.84c0-4.22-.26-8,.07-11.82.37-4.14-1.39-5-5.17-5C239.51,201,227.21,200.9,214.53,200.9ZM99,117H38.7V217.56H56.26V175H93.37V157.72H56.42V133.23H99Z"/><path class="cls-1" d="M122,393.92c-9.63-2.7-18.82-6-26.71-12.71-24.1-20.53-20.56-62.26,6.89-78.12,26.35-15.23,56.6-6.18,70.28,21,12.49,24.83-1.53,58.19-28,66.64-3.47,1.1-7,2.12-10.44,3.17Z"/><path class="cls-1" d="M397,393.92c-5.54-2.08-11.37-3.63-16.58-6.35-18-9.38-27.38-28.05-25.33-49.16,1.83-18.69,16.13-35,36-41,17.45-5.28,38.2,1.39,50.28,16.16,23.64,28.93,8.72,70.94-28.12,79.27a31.34,31.34,0,0,0-3.22,1.1Z"/><path class="cls-1" d="M135.4,160.53V134.11c8.47,0,16.75-.47,24.94.17,5.22.41,7.8,5.52,7.79,12.72,0,6.8-3,11.57-9.15,12.34C151.32,160.31,143.53,160.17,135.4,160.53Z"/></g></g></svg>