<svg xmlns="http://www.w3.org/2000/svg" viewBox="0 0 476.14 447.14"><defs><style>.cls-1{fill:#434343;}</style></defs><title>Fichier 3</title><g id="Calque_2" data-name="Calque 2"><g id="Calque_1-2" data-name="Calque 1"><path class="cls-1" d="M0,15.14C1.24,10.55,3.08,6.33,7.08,3.39A15.68,15.68,0,0,1,16.5,0c11.42,0,22.84,0,34.25,0A15.54,15.54,0,0,1,63.42,6a4.37,4.37,0,0,0,3.89,1.75c15.71,0,31.42,0,47.13-.09,2.52,0,3.51.91,4.1,3.23q35.37,139.49,70.82,278.94c1.15,4.53,2.28,9.07,3.46,13.81a71.59,71.59,0,0,0-26.57,7.66c-1.52-5.9-3-11.51-4.41-17.13L104.12,66.88c-3.29-13-6.61-26-9.81-39-.45-1.83-1.15-2.45-3.06-2.43-7.61.12-15.22.08-22.84,0a3,3,0,0,0-3,1.76C62,33,56.84,35.89,50.12,35.88c-10.69,0-21.38,0-32.07,0C8.87,35.84,2.33,30.41.4,21.34a4.11,4.11,0,0,0-.4-.85Z"/><path class="cls-1" d="M203.15,226.11,449.69,156.4c8.82,34.73,17.6,69.26,26.45,104.1-3.86,1.13-7.7,2.28-11.55,3.37L293.2,312.29c-13.58,3.83-27.18,7.62-40.75,11.51a3.29,3.29,0,0,1-3.67-.78,71.06,71.06,0,0,0-23.27-14.58,3.46,3.46,0,0,1-2.36-2.69q-10-39.4-20-78.81A4.64,4.64,0,0,1,203.15,226.11Z"/><path class="cls-1" d="M362.65,161.24,198.29,207.68c-8.8-34.64-17.57-69.22-26.43-104.11L336.27,57.08C345.07,91.84,353.82,126.37,362.65,161.24Z"/><path class="cls-1" d="M258.53,380.49c0,29.62-14.91,52.88-37.39,62.21-26.75,11.1-57,.83-72.38-24.58a65.46,65.46,0,0,1,11.37-81.46,57.44,57.44,0,0,1,80.8,2.95C252.69,352.2,258.25,367.2,258.53,380.49Zm-84.91,4.8c.28,2.16.42,4.34.86,6.46,3.62,17.36,22.74,25.94,37.71,16.95,11.07-6.64,15.7-21.54,10.57-34.05-4.25-10.39-14.82-17.27-24.89-16.21C183.73,359.93,173.78,371,173.62,385.29Z"/><path class="cls-1" d="M275.28,377.79a77.4,77.4,0,0,0-7.18-28.16l197.71-55.91c2.72,9.33,5.39,18.44,8.16,27.91Z"/></g></g></svg>